<svg width="25" height="24" viewBox="0 0 25 24" fill="none" xmlns="http://www.w3.org/2000/svg">
<g clip-path="url(#clip0)">
<path d="M21.507 4.60999C20.9962 4.099 20.3898 3.69364 19.7223 3.41708C19.0549 3.14052 18.3395 2.99817 17.617 2.99817C16.8945 2.99817 16.1791 3.14052 15.5116 3.41708C14.8442 3.69364 14.2377 4.099 13.727 4.60999L12.667 5.66999L11.607 4.60999C10.5753 3.5783 9.17602 2.9987 7.71699 2.9987C6.25796 2.9987 4.85868 3.5783 3.82699 4.60999C2.7953 5.64169 2.2157 7.04096 2.2157 8.49999C2.2157 9.95903 2.7953 11.3583 3.82699 12.39L4.88699 13.45L12.667 21.23L20.447 13.45L21.507 12.39C22.018 11.8792 22.4233 11.2728 22.6999 10.6053C22.9765 9.93789 23.1188 9.22248 23.1188 8.49999C23.1188 7.77751 22.9765 7.0621 22.6999 6.39464C22.4233 5.72718 22.018 5.12075 21.507 4.60999V4.60999Z" stroke="#F9F9F9" stroke-width="2" stroke-linecap="round" stroke-linejoin="round"/>
</g>
<defs>
<clipPath id="clip0">
<rect width="24" height="24" fill="white" transform="translate(0.666992)"/>
</clipPath>
</defs>
</svg>
