<svg width="25" height="24" viewBox="0 0 25 24" fill="none" xmlns="http://www.w3.org/2000/svg">
<g clip-path="url(#clip0)">
<path d="M9.66699 22C10.2193 22 10.667 21.5523 10.667 21C10.667 20.4477 10.2193 20 9.66699 20C9.11471 20 8.66699 20.4477 8.66699 21C8.66699 21.5523 9.11471 22 9.66699 22Z" stroke="#F9F9F9" stroke-width="2" stroke-linecap="round" stroke-linejoin="round"/>
<path d="M20.667 22C21.2193 22 21.667 21.5523 21.667 21C21.667 20.4477 21.2193 20 20.667 20C20.1147 20 19.667 20.4477 19.667 21C19.667 21.5523 20.1147 22 20.667 22Z" stroke="#F9F9F9" stroke-width="2" stroke-linecap="round" stroke-linejoin="round"/>
<path d="M1.66699 1H5.66699L8.34699 14.39C8.43844 14.8504 8.6889 15.264 9.05454 15.5583C9.42018 15.8526 9.87769 16.009 10.347 16H20.067C20.5363 16.009 20.9938 15.8526 21.3594 15.5583C21.7251 15.264 21.9755 14.8504 22.067 14.39L23.667 6H6.66699" stroke="#F9F9F9" stroke-width="2" stroke-linecap="round" stroke-linejoin="round"/>
</g>
<defs>
<clipPath id="clip0">
<rect width="24" height="24" fill="white" transform="translate(0.666992)"/>
</clipPath>
</defs>
</svg>
